<svg width="32" height="32" viewBox="0 0 32 32" fill="none" xmlns="http://www.w3.org/2000/svg">
<path d="M12.0003 2.66602C8.50699 2.66602 5.66699 5.50602 5.66699 8.99935C5.66699 12.426 8.34699 15.1993 11.8403 15.3193C11.947 15.306 12.0537 15.306 12.1337 15.3193C12.1603 15.3193 12.1737 15.3193 12.2003 15.3193C12.2137 15.3193 12.2137 15.3193 12.227 15.3193C15.6403 15.1993 18.3203 12.426 18.3337 8.99935C18.3337 5.50602 15.4937 2.66602 12.0003 2.66602Z" fill="#6667AB"/>
<path d="M18.7733 18.8659C15.0533 16.3859 8.98661 16.3859 5.23995 18.8659C3.54661 19.9992 2.61328 21.5325 2.61328 23.1725C2.61328 24.8125 3.54661 26.3325 5.22661 27.4525C7.09328 28.7059 9.54661 29.3325 11.9999 29.3325C14.4533 29.3325 16.9066 28.7059 18.7733 27.4525C20.4533 26.3192 21.3866 24.7992 21.3866 23.1459C21.3733 21.5059 20.4533 19.9859 18.7733 18.8659Z" fill="#6667AB"/>
<path d="M26.6535 9.78615C26.8668 12.3728 25.0268 14.6395 22.4801 14.9461C22.4668 14.9461 22.4668 14.9461 22.4535 14.9461H22.4135C22.3335 14.9461 22.2535 14.9461 22.1868 14.9728C20.8935 15.0395 19.7068 14.6261 18.8135 13.8661C20.1868 12.6395 20.9735 10.7995 20.8135 8.79948C20.7201 7.71948 20.3468 6.73282 19.7868 5.89282C20.2935 5.63948 20.8801 5.47948 21.4801 5.42615C24.0935 5.19948 26.4268 7.14615 26.6535 9.78615Z" fill="#6667AB"/>
<path d="M29.32 22.1199C29.2133 23.4132 28.3867 24.5332 27 25.2932C25.6667 26.0265 23.9867 26.3732 22.32 26.3332C23.28 25.4665 23.84 24.3865 23.9467 23.2399C24.08 21.5865 23.2933 19.9999 21.72 18.7332C20.8267 18.0265 19.7867 17.4665 18.6533 17.0532C21.6 16.1999 25.3067 16.7732 27.5867 18.6132C28.8133 19.5999 29.44 20.8399 29.32 22.1199Z" fill="#6667AB"/>
</svg>

