<svg width="157" height="60" viewBox="0 0 157 60" fill="none" xmlns="http://www.w3.org/2000/svg">
<path d="M18.384 44.816C15.248 44.816 12.432 44.16 9.936 42.848C7.472 41.504 5.52 39.584 4.08 37.088C2.672 34.56 1.968 31.552 1.968 28.064C1.968 24.576 2.704 21.584 4.176 19.088C5.68 16.592 7.68 14.688 10.176 13.376C12.704 12.032 15.488 11.36 18.528 11.36C20.096 11.36 21.664 11.536 23.232 11.888C24.8 12.24 26.352 12.848 27.888 13.712L28.08 20.912H24.768L23.616 14.96C22.912 14.576 22.208 14.304 21.504 14.144C20.8 13.984 20.096 13.904 19.392 13.904C17.472 13.904 15.696 14.432 14.064 15.488C12.464 16.512 11.168 18.08 10.176 20.192C9.216 22.272 8.736 24.912 8.736 28.112C8.736 31.28 9.184 33.92 10.08 36.032C11.008 38.112 12.256 39.664 13.824 40.688C15.392 41.712 17.152 42.224 19.104 42.224C20.736 42.224 22.384 41.856 24.048 41.12L25.2 35.264H28.464L28.272 42.416C26.896 43.184 25.376 43.776 23.712 44.192C22.048 44.608 20.272 44.816 18.384 44.816ZM31.4858 44V42.032L34.6538 41.408C34.6858 40.224 34.7018 38.944 34.7018 37.568C34.7018 36.16 34.7018 34.944 34.7018 33.92V13.328L31.1978 12.848V10.976L39.7898 8.816L40.5098 9.248L40.3178 16.016V24.608C42.7818 21.76 45.5178 20.336 48.5258 20.336C50.6058 20.336 52.2218 21.024 53.3738 22.4C54.5258 23.776 55.1018 25.952 55.1018 28.928V33.92C55.1018 35.008 55.1018 36.24 55.1018 37.616C55.1018 38.992 55.1178 40.272 55.1498 41.456L58.0778 42.032V44H46.2218V42.032L49.2938 41.408C49.3258 40.224 49.3418 38.96 49.3418 37.616C49.3418 36.24 49.3418 35.008 49.3418 33.92V29.36C49.3418 27.472 49.0858 26.176 48.5738 25.472C48.0938 24.736 47.2458 24.368 46.0298 24.368C44.2378 24.368 42.3818 25.28 40.4618 27.104V33.92C40.4618 34.976 40.4618 36.192 40.4618 37.568C40.4618 38.944 40.4778 40.24 40.5098 41.456L43.3418 42.032V44H31.4858ZM79.0763 44.576C77.7963 44.576 76.7563 44.256 75.9563 43.616C75.1563 42.976 74.6123 42.096 74.3243 40.976C73.1403 42.192 72.0683 43.12 71.1083 43.76C70.1483 44.368 68.9003 44.672 67.3643 44.672C65.5723 44.672 64.0523 44.16 62.8043 43.136C61.5883 42.08 60.9803 40.576 60.9803 38.624C60.9803 37.6 61.2203 36.656 61.7003 35.792C62.1803 34.896 63.0283 34.064 64.2443 33.296C65.4923 32.528 67.2683 31.776 69.5723 31.04C70.2123 30.816 70.9323 30.592 71.7323 30.368C72.5323 30.144 73.3483 29.92 74.1803 29.696V28.352C74.1803 26.112 73.8603 24.608 73.2203 23.84C72.6123 23.04 71.5243 22.64 69.9563 22.64C69.6683 22.64 69.3483 22.656 68.9963 22.688C68.6763 22.72 68.3403 22.768 67.9883 22.832L67.4123 25.472C67.2843 26.624 66.9483 27.472 66.4043 28.016C65.8603 28.56 65.1883 28.832 64.3883 28.832C62.8523 28.832 61.9563 28.112 61.7003 26.672C61.9883 24.752 63.0123 23.216 64.7723 22.064C66.5643 20.912 68.9163 20.336 71.8282 20.336C74.6123 20.336 76.6443 21.008 77.9243 22.352C79.2043 23.664 79.8443 25.888 79.8443 29.024V39.488C79.8443 40.928 80.3083 41.648 81.2363 41.648C81.8443 41.648 82.4043 41.296 82.9163 40.592L84.0203 41.552C83.4443 42.64 82.7563 43.424 81.9563 43.904C81.1883 44.352 80.2283 44.576 79.0763 44.576ZM66.5963 37.616C66.5963 38.864 66.9163 39.776 67.5563 40.352C68.2283 40.896 69.0443 41.168 70.0043 41.168C70.5483 41.168 71.0923 41.04 71.6363 40.784C72.1803 40.528 73.0283 40 74.1803 39.2V31.616C73.5083 31.84 72.8683 32.048 72.2603 32.24C71.6843 32.432 71.1883 32.608 70.7723 32.768C69.1723 33.408 68.0683 34.144 67.4603 34.976C66.8843 35.808 66.5963 36.688 66.5963 37.616ZM94.2218 44.672C92.3018 44.672 90.7978 44.192 89.7098 43.232C88.6218 42.272 88.0778 40.736 88.0778 38.624C88.0778 37.888 88.0778 37.2 88.0778 36.56C88.1098 35.888 88.1258 35.088 88.1258 34.16V23.936H84.5738V21.44L88.4618 20.96L90.2858 14.384H94.1738L93.9818 21.008H99.7418V23.936H93.9338V38.096C93.9338 39.28 94.1578 40.144 94.6058 40.688C95.0858 41.232 95.7098 41.504 96.4778 41.504C97.3418 41.504 98.3178 41.104 99.4058 40.304L100.558 41.504C99.9498 42.496 99.1178 43.28 98.0618 43.856C97.0058 44.4 95.7258 44.672 94.2218 44.672ZM110.722 44.672C108.802 44.672 107.298 44.192 106.21 43.232C105.122 42.272 104.578 40.736 104.578 38.624C104.578 37.888 104.578 37.2 104.578 36.56C104.61 35.888 104.626 35.088 104.626 34.16V23.936H101.074V21.44L104.962 20.96L106.786 14.384H110.674L110.482 21.008H116.242V23.936H110.434V38.096C110.434 39.28 110.658 40.144 111.106 40.688C111.586 41.232 112.21 41.504 112.978 41.504C113.842 41.504 114.818 41.104 115.906 40.304L117.058 41.504C116.45 42.496 115.618 43.28 114.562 43.856C113.506 44.4 112.226 44.672 110.722 44.672ZM118.489 44V42.032L121.657 41.408C121.689 40.224 121.705 38.944 121.705 37.568C121.705 36.16 121.705 34.944 121.705 33.92V31.664C121.705 30.352 121.689 29.264 121.657 28.4C121.657 27.504 121.625 26.576 121.561 25.616L118.153 25.184V23.36L126.793 20.336L127.561 20.816L127.417 27.584V33.92C127.417 34.944 127.417 36.16 127.417 37.568C127.417 38.944 127.433 40.24 127.465 41.456L130.393 42.032V44H118.489ZM124.537 15.872C123.513 15.872 122.649 15.552 121.945 14.912C121.241 14.272 120.889 13.456 120.889 12.464C120.889 11.44 121.241 10.608 121.945 9.968C122.649 9.328 123.513 9.008 124.537 9.008C125.561 9.008 126.409 9.328 127.081 9.968C127.785 10.608 128.137 11.44 128.137 12.464C128.137 13.456 127.785 14.272 127.081 14.912C126.409 15.552 125.561 15.872 124.537 15.872ZM144.776 22.64C144.008 22.64 143.24 22.896 142.472 23.408C141.736 23.888 141.096 24.688 140.552 25.808C140.04 26.928 139.72 28.448 139.592 30.368H146.168C147.32 30.368 148.088 30.128 148.472 29.648C148.856 29.168 149.048 28.496 149.048 27.632C149.048 26.16 148.632 24.96 147.8 24.032C146.968 23.104 145.96 22.64 144.776 22.64ZM144.776 44.672C142.536 44.672 140.568 44.192 138.872 43.232C137.176 42.272 135.848 40.896 134.888 39.104C133.928 37.28 133.448 35.12 133.448 32.624C133.448 30.064 133.992 27.872 135.08 26.048C136.2 24.192 137.64 22.784 139.4 21.824C141.192 20.832 143.096 20.336 145.112 20.336C147 20.336 148.648 20.736 150.056 21.536C151.464 22.336 152.552 23.456 153.32 24.896C154.12 26.336 154.52 28.032 154.52 29.984C154.52 31.008 154.424 31.888 154.232 32.624H139.544C139.672 35.376 140.392 37.44 141.704 38.816C143.048 40.192 144.728 40.88 146.744 40.88C148.152 40.88 149.336 40.608 150.296 40.064C151.288 39.488 152.184 38.752 152.984 37.856L154.376 39.104C153.448 40.864 152.168 42.24 150.536 43.232C148.936 44.192 147.016 44.672 144.776 44.672Z" fill="#6667AB"/>
</svg>

