<svg width="32" height="32" viewBox="0 0 32 32" fill="none" xmlns="http://www.w3.org/2000/svg">
<path d="M24.6271 22.4394L25.1471 26.6527C25.2804 27.7593 24.0938 28.5326 23.1471 27.9593L17.5604 24.6393C16.9471 24.6393 16.3471 24.5994 15.7605 24.5194C16.7471 23.3594 17.3338 21.8927 17.3338 20.306C17.3338 16.5193 14.0538 13.4527 10.0004 13.4527C8.45378 13.4527 7.02712 13.8927 5.84045 14.666C5.80045 14.3327 5.78711 13.9993 5.78711 13.6527C5.78711 7.586 11.0538 2.66602 17.5604 2.66602C24.0671 2.66602 29.3338 7.586 29.3338 13.6527C29.3338 17.2527 27.4805 20.4394 24.6271 22.4394Z" stroke="#292D32" stroke-width="1.5" stroke-linecap="round" stroke-linejoin="round"/>
<path d="M17.3337 20.3064C17.3337 21.8931 16.747 23.3598 15.7603 24.5198C14.4403 26.1198 12.347 27.1464 10.0003 27.1464L6.52032 29.2131C5.93366 29.5731 5.18699 29.0797 5.26699 28.3997L5.60032 25.7731C3.81365 24.5331 2.66699 22.5464 2.66699 20.3064C2.66699 17.9597 3.92033 15.8931 5.84033 14.6664C7.027 13.8931 8.45366 13.4531 10.0003 13.4531C14.0537 13.4531 17.3337 16.5197 17.3337 20.3064Z" stroke="#292D32" stroke-width="1.5" stroke-linecap="round" stroke-linejoin="round"/>
</svg>

