<svg width="32" height="32" viewBox="0 0 32 32" fill="none" xmlns="http://www.w3.org/2000/svg">
<path d="M12.2134 14.4927C12.0801 14.4793 11.9201 14.4793 11.7734 14.4927C8.60008 14.386 6.08008 11.786 6.08008 8.58602C6.08008 5.31935 8.72008 2.66602 12.0001 2.66602C15.2667 2.66602 17.9201 5.31935 17.9201 8.58602C17.9067 11.786 15.3867 14.386 12.2134 14.4927Z" stroke="#292D32" stroke-width="1.5" stroke-linecap="round" stroke-linejoin="round"/>
<path d="M21.8804 5.33398C24.467 5.33398 26.547 7.42732 26.547 10.0007C26.547 12.5207 24.547 14.574 22.0537 14.6673C21.947 14.654 21.827 14.654 21.707 14.6673" stroke="#292D32" stroke-width="1.5" stroke-linecap="round" stroke-linejoin="round"/>
<path d="M5.54695 19.414C2.32029 21.574 2.32029 25.094 5.54695 27.2407C9.21362 29.694 15.227 29.694 18.8936 27.2407C22.1203 25.0807 22.1203 21.5607 18.8936 19.414C15.2403 16.974 9.22695 16.974 5.54695 19.414Z" stroke="#292D32" stroke-width="1.5" stroke-linecap="round" stroke-linejoin="round"/>
<path d="M24.4531 26.666C25.4131 26.466 26.3198 26.0793 27.0665 25.506C29.1465 23.946 29.1465 21.3727 27.0665 19.8127C26.3331 19.2527 25.4398 18.8793 24.4931 18.666" stroke="#292D32" stroke-width="1.5" stroke-linecap="round" stroke-linejoin="round"/>
</svg>

