<svg width="32" height="32" viewBox="0 0 32 32" fill="none" xmlns="http://www.w3.org/2000/svg">
<path d="M4 12.1458V19.8392C4 22.6658 4 22.6658 6.66667 24.4658L14 28.7058C15.1067 29.3458 16.9067 29.3458 18 28.7058L25.3333 24.4658C28 22.6658 28 22.6658 28 19.8525V12.1458C28 9.3325 28 9.3325 25.3333 7.5325L18 3.2925C16.9067 2.6525 15.1067 2.6525 14 3.2925L6.66667 7.5325C4 9.3325 4 9.3325 4 12.1458Z" stroke="#292D32" stroke-width="1.5" stroke-linecap="round" stroke-linejoin="round"/>
<path d="M16 20C18.2091 20 20 18.2091 20 16C20 13.7909 18.2091 12 16 12C13.7909 12 12 13.7909 12 16C12 18.2091 13.7909 20 16 20Z" stroke="#292D32" stroke-width="1.5" stroke-linecap="round" stroke-linejoin="round"/>
</svg>

